HIERARCHY
ROOT Hips
{
	OFFSET 0.000000 0.000000 0.000000 
	CHANNELS 6 Xposition Yposition Zposition Zrotation Yrotation Xrotation
	JOINT LeftUpLeg
	{
		OFFSET 1.363060 -1.794630 0.839290 
		CHANNELS 3 Zrotation Yrotation Xrotation
		JOINT LeftLeg
		{
			OFFSET 2.448110 -6.726130 0.000000 
			CHANNELS 3 Zrotation Yrotation Xrotation
			JOINT LeftFoot
			{
				OFFSET 2.562200 -7.039590 0.000000 
				CHANNELS 3 Zrotation Yrotation Xrotation
				JOINT LeftToeBase
				{
					OFFSET 0.157640 -0.433110 2.322550 
					CHANNELS 3 Zrotation Yrotation Xrotation
					End Site
					{
						OFFSET 0.000000 0.000000 0.000000 
					}
				}
			}
		}
	}
	JOINT RightUpLeg
	{
		OFFSET -1.305520 -1.794630 0.839290 
		CHANNELS 3 Zrotation Yrotation Xrotation
		JOINT RightLeg
		{
			OFFSET -2.542530 -6.985550 0.000000 
			CHANNELS 3 Zrotation Yrotation Xrotation
			JOINT RightFoot
			{
				OFFSET -2.568260 -7.056230 0.000000 
				CHANNELS 3 Zrotation Yrotation Xrotation
				JOINT RightToeBase
				{
					OFFSET -0.164730 -0.452590 2.363150 
					CHANNELS 3 Zrotation Yrotation Xrotation
					End Site
					{
						OFFSET 0.000000 0.000000 0.000000 
					}
				}
			}
		}
	}
	JOINT Spine
	{
		OFFSET 0.028270 2.035590 -0.193380 
		CHANNELS 3 Zrotation Yrotation Xrotation
		JOINT Spine1
		{
			OFFSET 0.056720 2.048850 -0.042750 
			CHANNELS 3 Zrotation Yrotation Xrotation
			JOINT Neck1
			{
				OFFSET -0.054170 1.746240 0.172020 
				CHANNELS 3 Zrotation Yrotation Xrotation
				JOINT Head
				{
					OFFSET 0.104070 1.761360 -0.123970 
					CHANNELS 3 Zrotation Yrotation Xrotation
					End Site
					{
						OFFSET 0.000000 0.000000 0.000000 
					}
				}
			}
			JOINT LeftArm
			{
				OFFSET 3.362410 1.200890 -0.311210 
				CHANNELS 3 Zrotation Yrotation Xrotation
				JOINT LeftForeArm
				{
					OFFSET 4.983000 -0.000000 -0.000000 
					CHANNELS 3 Zrotation Yrotation Xrotation
					JOINT LeftHand
					{
						OFFSET 3.483560 -0.000000 -0.000000 
						CHANNELS 3 Zrotation Yrotation Xrotation
						JOINT LeftHandIndex1
						{
							OFFSET 0.715260 -0.000000 -0.000000 
							CHANNELS 3 Zrotation Yrotation Xrotation
							End Site
							{
								OFFSET 0.000000 0.000000 0.000000 
							}
						}
					}
				}
			}
			JOINT RightArm
			{
				OFFSET -3.136600 1.374050 -0.404650 
				CHANNELS 3 Zrotation Yrotation Xrotation
				JOINT RightForeArm
				{
					OFFSET -5.241900 -0.000000 -0.000000 
					CHANNELS 3 Zrotation Yrotation Xrotation
					JOINT RightHand
					{
						OFFSET -3.444170 -0.000000 -0.000000 
						CHANNELS 3 Zrotation Yrotation Xrotation
						JOINT RightHandIndex1
						{
							OFFSET -0.622530 -0.000000 -0.000000 
							CHANNELS 3 Zrotation Yrotation Xrotation
							End Site
							{
								OFFSET 0.000000 0.000000 0.000000 
							}
						}
					}
				}
			}
		}
	}
}
MOTION
Frames: 15
Frame Time: 0.041667
10.507013 17.837296 50.133552 -178.814866 1.990473 178.753361 -16.141943 -16.728568 -4.768287 -2.204115 8.719163 24.914040 -4.679845 14.482204 -6.191227 0.840400 -5.847800 -16.343400 22.606303 15.430431 -3.183686 1.719952 -8.630596 26.611151 5.228109 -18.819450 -14.566232 -0.161200 2.587100 -7.131200 2.861444 0.198004 4.237232 -2.911325 0.221992 -9.829614 12.212952 -1.714408 7.275803 2.105900 -0.635100 3.312400 -89.583845 13.576108 32.946074 23.729374 -23.336653 -6.464192 1.438356 1.216036 13.951103 -7.125000 0.000000 0.000000 85.372744 -6.156493 49.362078 -21.306118 24.444259 -6.375037 1.273687 0.276341 24.475836 7.125000 0.000000 0.000000 
10.507368 17.839895 50.140642 -178.981278 2.229576 178.899506 -16.277809 -16.699511 -4.860260 -2.231145 8.696983 24.826958 -4.737253 14.622677 -6.293228 0.843700 -5.858900 -16.375500 22.318790 15.389232 -3.532444 1.686069 -8.690672 26.724162 5.145556 -18.513285 -14.288030 -0.161600 2.589800 -7.138800 2.725177 0.361697 4.111944 -2.925761 0.307408 -9.844150 12.409020 -1.710872 6.991534 2.181900 -0.649900 3.175100 -89.632167 13.448635 32.892616 23.555577 -23.138045 -6.378056 1.435026 1.229608 14.302829 -7.125000 0.000000 0.000000 85.311512 -6.154372 49.694241 -21.021443 24.086393 -6.226686 1.303256 0.225689 25.149677 7.125000 0.000000 0.000000 
10.506659 17.842968 50.146906 -178.914370 1.975016 178.905779 -16.202928 -16.913294 -4.841869 -2.228782 8.703279 24.837345 -4.714803 14.567633 -6.292262 0.844000 -5.859700 -16.377900 22.375670 15.207462 -3.599150 1.686524 -8.694411 26.738368 5.128386 -18.491613 -14.374600 -0.145100 2.454700 -6.764000 2.688944 0.297186 4.043653 -3.011389 0.263680 -9.919432 12.337621 -1.695706 6.785490 2.131300 -0.658500 3.069100 -89.577138 13.373270 32.817944 23.603268 -23.210571 -6.396796 1.506509 1.167340 13.684852 -7.125000 0.000000 0.000000 85.285994 -6.200911 49.911910 -20.829441 23.855726 -6.144089 1.312411 0.202079 25.772769 7.125000 0.000000 0.000000 
10.506068 17.843913 50.153523 -178.735291 1.867050 178.919918 -16.008953 -16.985799 -4.867654 -2.228369 8.693414 24.800049 -4.727311 14.577608 -6.156494 0.886500 -6.001800 -16.789600 22.575812 15.159640 -3.624665 1.683485 -8.715857 26.792595 5.099620 -18.462755 -14.491087 -0.130300 2.326600 -6.409200 2.728426 0.326138 3.918644 -3.157559 0.255407 -10.035718 12.100597 -1.726910 6.627330 2.013700 -0.715100 2.973700 -89.526896 13.471257 33.009272 23.517464 -23.114392 -6.358622 1.498570 1.178968 14.324651 -7.125000 0.000000 0.000000 85.263930 -6.354982 50.034578 -20.700361 23.700949 -6.089446 1.314775 0.186932 26.387256 7.125000 0.000000 0.000000 
10.508786 17.845804 50.156596 -178.756924 1.884852 179.036873 -16.013227 -17.014394 -4.955161 -2.229738 8.703643 24.793588 -4.876776 14.915423 -6.141440 0.944700 -6.190300 -17.337500 22.526760 15.212928 -3.736176 1.688010 -8.722610 26.776827 5.094346 -18.435384 -14.446283 -0.126800 2.295600 -6.323200 2.686158 0.431606 3.670152 -3.213768 0.299856 -10.143464 12.071944 -1.803028 6.526559 2.008700 -0.763900 2.903200 -89.527232 13.493826 32.983950 23.479976 -23.081293 -6.341734 1.535586 1.151454 14.452864 -7.125000 0.000000 0.000000 85.260718 -6.588105 50.066752 -20.493750 23.429984 -5.965092 1.334250 0.133708 27.215977 7.125000 0.000000 0.000000 
10.511386 17.849467 50.160141 -178.886209 1.844346 179.192201 -16.127613 -17.157392 -5.019094 -2.236665 8.719738 24.793364 -5.051127 15.323097 -6.235093 0.981900 -6.307500 -17.679200 22.340908 15.226989 -3.916403 1.693281 -8.726649 26.740939 5.131933 -18.500940 -14.363829 -0.130800 2.330800 -6.420900 2.585637 0.522010 3.316135 -3.209991 0.344254 -10.323860 12.088183 -1.897728 6.472766 2.021200 -0.817400 2.852000 -89.507216 13.473988 32.976494 23.436552 -23.049718 -6.333717 1.564185 1.138997 14.622924 -7.125000 0.000000 0.000000 85.304676 -6.852972 50.040945 -20.288666 23.165610 -5.844399 1.349022 0.088778 27.815704 7.125000 0.000000 0.000000 
10.512686 17.845922 50.165931 -178.877431 1.777977 179.234434 -16.110958 -17.318809 -5.005031 -2.243761 8.718785 24.771344 -5.120825 15.482492 -6.284609 1.029900 -6.455200 -18.110900 22.353373 15.223066 -3.989688 1.690761 -8.741980 26.755145 5.196716 -18.672191 -14.330599 -0.143800 2.444200 -6.735000 2.523481 0.593299 3.044882 -3.284161 0.368207 -10.544904 12.061794 -1.931946 6.305007 1.997300 -0.847200 2.745500 -89.513199 13.413204 32.847861 23.355770 -22.971931 -6.298523 1.576000 1.136114 15.164209 -7.125000 0.000000 0.000000 85.371018 -7.057900 50.156440 -20.128660 22.970212 -5.762815 1.355163 0.080906 27.908662 7.125000 0.000000 0.000000 
10.511859 17.848877 50.174085 -178.833650 1.852252 179.498475 -15.990700 -17.394180 -5.221828 -2.260748 8.709211 24.694695 -5.212993 15.683312 -6.294761 0.977400 -6.293400 -17.638000 22.314690 15.323276 -4.289974 1.700033 -8.765701 26.722500 5.250802 -18.785702 -14.180409 -0.174200 2.688600 -7.413000 2.516890 0.706162 2.725729 -3.394870 0.408100 -10.600704 12.065168 -1.926051 6.108828 2.000600 -0.859900 2.635100 -89.635951 13.310466 32.536975 23.263606 -22.863753 -6.234316 1.603040 1.103703 15.784992 -7.125000 0.000000 0.000000 85.362116 -7.197636 50.417477 -19.947921 22.744742 -5.674898 1.363826 0.080185 27.688349 7.125000 0.000000 0.000000 
10.514577 17.850058 50.182003 -178.946521 1.901211 179.548372 -16.095506 -17.439015 -5.218190 -2.275111 8.697669 24.643496 -5.284891 15.854469 -6.320681 0.957400 -6.230700 -17.455200 22.205674 15.524501 -4.314046 1.697038 -8.782550 26.749956 5.259178 -18.815265 -14.249086 -0.180400 2.736000 -7.544500 2.478575 0.778956 2.529234 -3.390138 0.446065 -10.723033 11.994972 -1.931303 6.000569 1.979100 -0.874300 2.558400 -89.743797 13.230903 32.358008 23.038816 -22.604624 -6.118666 1.623351 1.095170 16.773743 -7.125000 0.000000 0.000000 85.315257 -7.410038 50.681189 -19.853016 22.637101 -5.640402 1.366332 0.096993 27.182761 7.125000 0.000000 0.000000 
10.518713 17.859039 50.175622 -179.061188 1.283271 179.851168 -16.099483 -17.853565 -5.302857 -2.302596 8.659523 24.481423 -5.260865 15.784388 -6.023493 0.913900 -6.091400 -17.049900 22.101747 15.704508 -4.445576 1.716030 -8.799185 26.757822 5.320011 -19.084723 -14.769308 -0.133100 2.351300 -6.477500 2.368302 0.546962 2.241811 -3.335861 0.336181 -10.584700 12.005664 -1.929160 6.056295 1.987300 -0.871600 2.564200 -89.770702 13.093556 32.029469 23.041375 -22.622743 -6.115844 1.709316 1.015167 16.713628 -7.125000 0.000000 0.000000 85.301539 -7.592005 51.010607 -19.803863 22.594618 -5.650106 1.363077 0.135879 26.448283 7.125000 0.000000 0.000000 
10.518358 17.855967 50.183067 -179.235802 1.782623 179.801437 -16.329138 -17.814006 -5.164756 -2.335358 8.632135 24.416938 -5.315972 15.940172 -6.398372 0.842100 -5.853300 -16.359300 21.914292 16.031858 -4.395504 1.702091 -8.812830 26.786008 5.278629 -18.917260 -14.587727 -0.121300 2.245600 -6.184900 2.264939 0.773443 2.153168 -3.329174 0.449241 -10.743593 12.204209 -1.952322 6.374994 2.078100 -0.858100 2.716700 -89.850380 12.989027 31.723443 22.973934 -22.550140 -6.077759 1.723858 1.001765 17.433158 -7.125000 0.000000 0.000000 85.307492 -7.642849 51.290726 -19.706182 22.497933 -5.632482 1.358467 0.172393 25.853795 7.125000 0.000000 0.000000 
10.522021 17.867075 50.175149 -179.264526 1.230503 -179.900872 -16.236479 -18.257907 -5.244813 -2.356290 8.604017 24.298490 -5.254069 15.782475 -6.233536 0.760100 -5.567700 -15.535100 21.878947 16.038795 -4.571368 1.725063 -8.816678 26.750889 5.355906 -19.198507 -14.934048 -0.101300 2.052300 -5.650200 2.199028 0.573526 1.949237 -3.331488 0.347103 -10.564367 12.264215 -1.943254 6.430182 2.103800 -0.847900 2.755800 -89.925741 12.772058 31.374051 22.981399 -22.561703 -6.068010 1.774477 0.941828 17.329818 -7.125000 0.000000 0.000000 85.351247 -7.686481 51.294037 -19.627738 22.413056 -5.615435 1.348775 0.219117 25.293953 7.125000 0.000000 0.000000 
10.525212 17.866603 50.175149 -179.215774 1.346619 -179.804268 -16.157186 -18.343679 -5.285138 -2.358573 8.608665 24.300453 -5.290028 15.863438 -6.330447 0.755200 -5.550400 -15.485200 21.936417 16.192614 -4.588896 1.736156 -8.814449 26.717214 5.361575 -19.220086 -14.932628 -0.093000 1.966700 -5.413800 2.142532 0.722111 1.856724 -3.435519 0.407170 -10.540115 12.286786 -1.961965 6.327476 2.108400 -0.863100 2.716300 -89.916051 12.687398 31.383376 22.880860 -22.449618 -6.031619 1.739838 0.994936 18.145733 -7.125000 0.000000 0.000000 85.325294 -7.999076 51.685599 -19.095197 21.718764 -5.346973 1.386680 0.091583 28.120185 7.125000 0.000000 0.000000 
10.521667 17.866366 50.176685 -179.051317 1.203864 -179.657303 -15.953283 -18.528446 -5.380732 -2.356236 8.613180 24.279984 -5.368217 16.024880 -6.254295 0.761000 -5.571200 -15.545200 22.068953 16.139033 -4.678656 1.763063 -8.792382 26.628164 5.327228 -19.149408 -14.980223 -0.081300 1.839000 -5.061000 2.046590 0.777375 1.724225 -3.664647 0.403345 -10.507685 12.363772 -2.022617 6.295908 2.139400 -0.894500 2.706700 -89.879720 12.622313 31.175488 22.928999 -22.547037 -6.092389 1.749028 1.016595 18.317804 -7.125000 0.000000 0.000000 85.535836 -8.125255 51.522454 -19.096741 21.735547 -5.369448 1.375482 0.146695 27.423830 7.125000 0.000000 0.000000 
10.520722 17.866012 50.184012 -178.940237 1.524422 -179.634778 -15.865712 -18.522849 -5.387222 -2.356903 8.621271 24.297337 -5.477674 16.276298 -6.440802 0.759200 -5.564600 -15.526100 22.161227 16.228779 -4.693920 1.774440 -8.778916 26.566211 5.274281 -18.973153 -14.788498 -0.084400 1.873400 -5.155800 2.019941 0.990599 1.661582 -3.812106 0.486875 -10.589484 12.408921 -2.099333 6.276601 2.150300 -0.929900 2.728400 -89.854477 12.642823 31.326462 23.072083 -22.702339 -6.147247 1.713584 1.023869 18.401143 -7.125000 0.000000 0.000000 85.699771 -8.257163 51.361594 -19.035685 21.664229 -5.350249 1.374081 0.157698 27.336618 7.125000 0.000000 0.000000 
